<?xml version="1.0" standalone="no"?><!DOCTYPE svg PUBLIC "-//W3C//DTD SVG 1.1//EN" "http://www.w3.org/Graphics/SVG/1.1/DTD/svg11.dtd"><svg t="1766515137548" class="icon" viewBox="0 0 1024 1024" version="1.1" xmlns="http://www.w3.org/2000/svg" p-id="9249" xmlns:xlink="http://www.w3.org/1999/xlink" width="200" height="200"><path d="M480 512a128 128 0 1 0-255.957333 0 128 128 0 0 0 255.957333 0z m-192 0a64 64 0 1 1 128 0 64 64 0 0 1-128 0zM896 416h-64v-256a32 32 0 0 0-32-32h-384a32 32 0 0 0-32 32V256H160a64 64 0 0 0-64 64v384a64 64 0 0 0 64 64h128v64a64 64 0 0 0 64 64h512a64 64 0 0 0 64-64v-384a32 32 0 0 0-32-32z m-233.386667 240l201.386667-145.408v290.816l-201.386667-145.408zM448 192H768v308.949333l-160 115.584V320a64 64 0 0 0-64-64H448V192z m-288 128h384v384h-384v-384zM352 768h192a64 64 0 0 0 64-64v-8.533333l189.013333 136.533333H352V768z" p-id="9250" fill="#8a8a8a"></path></svg>